<svg xmlns="http://www.w3.org/2000/svg" id="functional" viewBox="0 0 216.57 232.46">
    <path d="m104.87 57.91a22.11 22.11 0 0 1 8.35-1.62 22.39 22.39 0 1 1 -8.35 1.62z" fill="#d5eeee"></path><path d="m113.22 101a22.36 22.36 0 0 0 0-44.72 22.39 22.39 0 0 0 -22.38 22.38 22.35 22.35 0 0 0 22.38 22.34zm-4.93-85.06a106.84 106.84 0 1 1 -106.83 106.84 106.85 106.85 0 0 1 106.83-106.83z" fill="#f37a6f"></path><g fill="#6f8089"><path d="m108.29 230.83a108 108 0 1 1 108-108 108.17 108.17 0 0 1 -108 108zm0-213.67a105.63 105.63 0 1 0 105.63 105.62 105.75 105.75 0 0 0 -105.63-105.62z"></path><path d="m113.22 102.46a23.81 23.81 0 0 1 -8.89-45.9 23.48 23.48 0 0 1 8.89-1.73 23.81 23.81 0 0 1 0 47.62zm0-44.72a20.6 20.6 0 0 0 -7.8 1.51 20.89 20.89 0 1 0 7.8-1.51z"></path><path d="m103.96 58.77-.15-.27-14.09-26.09 2.13-1.15 14.23 26.33z"></path><path d="m60.75 200.95a1.21 1.21 0 0 1 -1.12-1.66l40.37-99.43a1.21 1.21 0 0 1 2.24.91l-40.37 99.42a1.21 1.21 0 0 1 -1.12.76z"></path><path d="m155.78 199.62a1.2 1.2 0 0 1 -.86-.36c-36.92-37.26-37.32-94.05-37.32-96.45a1.21 1.21 0 1 1 2.42 0c0 .58.42 58.22 36.62 94.75a1.21 1.21 0 0 1 -.86 2.06z"></path><path d="m108.28 231.08a108.28 108.28 0 1 1 108.29-108.28 108.41 108.41 0 0 1 -108.29 108.28zm0-213.67a105.38 105.38 0 1 0 105.39 105.39 105.5 105.5 0 0 0 -105.39-105.39z"></path></g><path d="m165.26 195.36a16.29 16.29 0 1 1 -16.26 16.31 16.3 16.3 0 0 1 16.26-16.31z" fill="#d5eeee"></path><path d="m165.26 229.4a17.75 17.75 0 1 1 17.74-17.73 17.77 17.77 0 0 1 -17.74 17.73zm0-32.59a14.84 14.84 0 1 0 14.83 14.86 14.88 14.88 0 0 0 -14.83-14.86z" fill="#6f8089"></path><path d="m113.21 102.47a23.82 23.82 0 1 1 23.79-23.82 23.85 23.85 0 0 1 -23.79 23.82zm0-44.74a20.92 20.92 0 1 0 20.92 20.92 20.94 20.94 0 0 0 -20.92-20.92z" fill="#6f8089"></path><path d="m104.58 58.82a1.45 1.45 0 0 1 -1.28-.76l-13.79-25.54a1.45 1.45 0 1 1 2.55-1.38l13.8 25.54a1.45 1.45 0 0 1 -1.28 2.14z" fill="#6f8089"></path><path d="m60.76 201.17a1.45 1.45 0 0 1 -1.34-2l41-100.93a1.45 1.45 0 0 1 2.69 1.09l-41 100.93a1.45 1.45 0 0 1 -1.35.91z" fill="#6f8089"></path><path d="m155.78 199.87a1.45 1.45 0 0 1 -1-.43c-37-37.33-37.45-98.51-37.45-99.12a1.45 1.45 0 0 1 1.45-1.45 1.45 1.45 0 0 1 1.45 1.45c0 .6.46 60.61 36.61 97.08a1.45 1.45 0 0 1 -1 2.47z" fill="#6f8089"></path><path d="m54.37 198.42a16.29 16.29 0 1 1 -16.28 16.28 16.3 16.3 0 0 1 16.28-16.28z" fill="#d5eeee"></path><path d="m54.37 232.46a17.75 17.75 0 1 1 17.76-17.76 17.77 17.77 0 0 1 -17.76 17.76zm0-32.59a14.84 14.84 0 1 0 14.86 14.83 14.84 14.84 0 0 0 -14.86-14.83z" fill="#6f8089"></path><path d="m82.6 1.45a16.29 16.29 0 1 1 -16.28 16.31 16.31 16.31 0 0 1 16.28-16.31z" fill="#d5eeee"></path><path d="m82.6 35.49a17.75 17.75 0 1 1 17.76-17.73 17.75 17.75 0 0 1 -17.76 17.73zm0-32.59a14.84 14.84 0 1 0 14.86 14.86 14.86 14.86 0 0 0 -14.86-14.86z" fill="#6f8089"></path>
</svg>